<?xml version="1.0" encoding="utf-8"?>
<!-- Generator: Adobe Illustrator 22.0.1, SVG Export Plug-In . SVG Version: 6.00 Build 0)  -->
<svg version="1.1" id="rickmortylogo" xmlns="http://www.w3.org/2000/svg" xmlns:xlink="http://www.w3.org/1999/xlink" x="0px"
	 y="0px" viewBox="0 0 1366 768" style="enable-background:new 0 0 1366 768;" xml:space="preserve">
<style type="text/css">
	.st0{fill:#7A0505;}
	.st1{fill:#FFFFFF;}
</style>
<g id="base">
	<path class="st0" d="M1013.9,425.2c0-214.1-173.6-387.8-387.8-387.8S238.4,211.1,238.4,425.2c0,108.4,44.1,205.7,115.2,276.7
		c0.8,0.8-3.4,55.4-3.4,55.4L392,591.5l72.7-23.9c-3.5,6.7-36.4,70.1-49.7,117.4c0,3,7,13,34,34c-4,4-11,15-11,15s12.5-11.5,15-14
		c1.4-1.4-32.5-28.5-34.5-34.5c2-7,20-66.8,48.9-118.8l0.6-0.2v-14c0,0-25.5-5-38.5-23c-7.5-10.4-39-45-38.5-167
		c-0.2,48-6.5,114,36,171c-21,12-23,10-23,10l1-33l-44,4l13-46l-50-16c0,0,37-40,39-40c-7.5-8-22.5-30-66-37c43-33,60-42,60-42
		s-19-40-53-62c14-3,87-8,87-8s-6-46-23-66c35,3,67,22,67,22s16-28,17-77c19,23,54,64,54,64s30-47,68-57c-3.5,43,3,78,9,85
		c14-4,68-25,68-25l-44,71l68,12l-52,49l56,24c0,0-17,19-74,35c13.5,14,45,32,45,32s-18,8-47,20c3,6,15,31,15,31l-35,7l18,25l-29,8
		c0,0-9.5,24-40,31c1,11,0,15,0,15l6,3c0,0,47,75.5,56,113.5c0.5,5-34,31-33,33c4.5,4,38.5,35,38.5,35l-3.5,18.5
		c0,0,6.5-17.5,5.5-19.5S565,718,565,718s32.6-28,32-31c-7.5-34.5-36.5-83.5-55-113.5c15,4,62,16,62,16s56,199,55,212
		c3-23,2-80,35-120c12,4,66,23,105,13c-35.7,4.5-127.5,3-160-93c8,30,11,30,11,30s-28,3-32-22s14-27,14-27s-19-30-19-38s4-24,10-37
		s-1-19,1-27s29-56,69-77s76-21,101-19s40,18,48,20s25,6,46,40c18.4,29.8,22,33.9,23,60c1,25,5,28,4,38s-6,35-8,40
		c10,9,25.5,36-18,50c-7,10-12,21-46,46c6.2,6.2,28,69.5,34,106.5c0.9-0.8-4.2-58.6-3.2-59.4C959.4,654.5,1013.9,545.2,1013.9,425.2
		z"/>
	<path class="st0" d="M462,736c1-17,4-156,4-156C460,590,461,753,462,736z"/>
	<path class="st0" d="M550,716c2.5,27.3-5-110-16-135C534,581,544,651,550,716z"/>
</g>
<g id="eyes">
	<path class="st1" d="M447.5,322.5c-35,0-40,34-31,54c0,0,18-6,33-6s32,5,32,5S499.5,322.5,447.5,322.5z"/>
	<path class="st1" d="M511.5,339.5c-11,3-6,30-6,30c24-5,62,6,67,7c3-3,6-14,4-22C544.5,332.5,522.5,336.5,511.5,339.5z"/>
	<path class="st1" d="M742.5,507.5c6,30-77,29-77,29c-11,38,39,70,73,48C779.5,555.5,755.5,515.5,742.5,507.5z"/>
	<path class="st1" d="M878.8,535.5c0,0-85,2-79-28c-13,8-36,46,5,75C838.8,604.5,886.5,572.5,878.8,535.5z"/>
</g>
</svg>
